<svg xmlns="http://www.w3.org/2000/svg" preserveAspectRatio="xMidYMid" width="65" height="47" viewBox="0 0 65 47"><path d="M0 47.004V9.105h2.241V4.554l3.362.268V-.005l57.244 9.109v.001H65v37.899H0zM5.603 7.057l-1.12-.09v2.137h26.851L13.176 7.66l-7.573-.602v-.001zm2.242-4.448v2.39l30.037 2.39-30.037-4.78zm54.914 8.725h-3.362H2.241v33.439h60.518V11.334zM7.284 12.448c2.163 0 3.923 1.75 3.923 3.902 0 2.151-1.76 3.901-3.923 3.901-2.163 0-3.922-1.75-3.922-3.901 0-2.152 1.759-3.902 3.922-3.902zm0 5.574c.927 0 1.681-.751 1.681-1.672 0-.922-.754-1.672-1.681-1.672-.926 0-1.681.749-1.681 1.672 0 .922.755 1.672 1.681 1.672zm0 17.834c2.163 0 3.923 1.75 3.923 3.902 0 2.151-1.76 3.901-3.923 3.901-2.163 0-3.922-1.75-3.922-3.901 0-2.152 1.759-3.902 3.922-3.902zm0 5.574c.927 0 1.681-.751 1.681-1.672 0-.922-.754-1.672-1.681-1.672-.926 0-1.681.75-1.681 1.672a1.68 1.68 0 0 0 1.681 1.672zm5.044-1.672c0-2.766-2.263-5.016-5.044-5.016-.154 0-.307.01-.458.023l-1.223.111V21.231l1.223.111c.151.013.304.024.458.024 2.781 0 5.044-2.251 5.044-5.016 0-.154-.011-.305-.024-.456l-.112-1.216H24.46a15.632 15.632 0 0 1 8.04-2.23c2.941 0 5.685.824 8.04 2.23h12.265l-.109 1.212a5.828 5.828 0 0 0-.024.46c0 2.765 2.263 5.016 5.044 5.016.153 0 .305-.011.457-.024l1.224-.111v13.645l-1.224-.111a5.337 5.337 0 0 0-.457-.023c-2.781 0-5.044 2.25-5.044 5.016 0 .156.012.307.023.459l.109 1.213H40.542l-.134.079a17.264 17.264 0 0 1-1.556.801 16.77 16.77 0 0 1-1.308.506c-.183.063-.364.127-.55.183-.403.121-.813.226-1.225.314l-1.423.227c-.145.016-.289.033-.435.046-.469.043-.938.072-1.411.072-.483 0-.962-.029-1.438-.073-.134-.012-.267-.029-.4-.044a15.937 15.937 0 0 1-1.094-.166c-.111-.02-.223-.038-.333-.062a15.678 15.678 0 0 1-1.422-.366 16.171 16.171 0 0 1-1.301-.475l-.258-.111c-.376-.162-.746-.34-1.11-.532-.057-.031-.116-.058-.172-.09a15.26 15.26 0 0 1-.539-.309H12.192l.112-1.217c.013-.15.024-.302.024-.455zm38.124-.558c.274-3.552 3.131-6.395 6.703-6.667v-8.959c-3.572-.272-6.429-3.115-6.703-6.667h-6.984c.017.017.032.036.049.05.192.188.369.391.551.589.175.189.355.373.52.569.062.076.117.159.179.235a15.418 15.418 0 0 1 3.325 8.003c.005.036.014.072.017.109a15.5 15.5 0 0 1-.001 3.182c-.005.037-.013.073-.017.109a15.406 15.406 0 0 1-3.325 8.003c-.062.076-.117.159-.179.235-.164.197-.346.38-.52.569-.182.199-.359.401-.551.589l-.048.051h6.984zM22.52 36.989c.098.107.192.216.293.32.465.478.978.916 1.518 1.327.11-.076.218-.16.332-.223l1.829 1.591a12.933 12.933 0 0 0 2.693.998c.071.017.141.037.212.054 2.432.56 5.025.453 7.405-.339.048-.016.096-.035.144-.052.402-.139.797-.3 1.184-.478.043-.019.083-.039.125-.059l2.09-.961c.457-.384 1.308-1.312 1.838-1.857.101-.104.195-.213.292-.32.241-.264.47-.539.687-.819.113-.148.228-.295.335-.446.204-.288.391-.587.572-.889.079-.132.167-.259.242-.395.23-.42.434-.853.617-1.296.07-.166.126-.339.189-.509a12.36 12.36 0 0 0 .655-2.53c.026-.165.057-.327.076-.493.061-.514.1-1.033.1-1.559 0-.527-.039-1.046-.098-1.561-.021-.166-.051-.329-.077-.493a12.662 12.662 0 0 0-.655-2.53c-.063-.169-.119-.342-.188-.509a13.036 13.036 0 0 0-.618-1.296c-.075-.136-.162-.263-.242-.395-.18-.302-.368-.601-.572-.889-.107-.151-.221-.298-.335-.446-.218-.28-.446-.555-.687-.819-.097-.107-.191-.216-.292-.32a13.674 13.674 0 0 0-2.498-2.028 13.393 13.393 0 0 0-14.371.001 13.64 13.64 0 0 0-2.498 2.028c-.101.104-.195.213-.292.32-.241.264-.47.539-.687.82-.113.147-.228.294-.335.445-.204.288-.392.587-.572.889-.079.132-.167.259-.242.396-.23.419-.434.852-.617 1.295-.07.166-.126.339-.189.509a12.505 12.505 0 0 0-.655 2.53c-.026.165-.057.327-.077.493-.06.514-.099 1.032-.099 1.56 0 .527.039 1.045.095 1.558.02.166.05.329.076.493a13.203 13.203 0 0 0 .343 1.582c.092.321.198.636.313.948.063.169.119.342.188.509.183.443.388.876.618 1.295.075.136.162.264.242.396.18.302.367.601.571.889.108.151.222.298.335.445.219.281.446.555.687.82zm-7.972 2.212h6.983c-.017-.016-.032-.034-.049-.051-.191-.188-.368-.391-.55-.589-.175-.189-.355-.373-.52-.569-.063-.076-.117-.158-.179-.235a15.418 15.418 0 0 1-3.325-8.003c-.005-.036-.014-.072-.017-.109a15.534 15.534 0 0 1 .001-3.182l.017-.109a15.41 15.41 0 0 1 3.325-8.003c.062-.076.117-.159.179-.235.164-.197.345-.38.52-.569.182-.199.359-.4.551-.589l.048-.051h-6.984c-.274 3.552-3.132 6.395-6.703 6.667v8.959c3.571.272 6.429 3.116 6.703 6.667v.001zm43.168-3.345c2.162 0 3.922 1.75 3.922 3.902 0 2.151-1.76 3.901-3.922 3.901-2.163 0-3.923-1.75-3.923-3.901 0-2.152 1.76-3.902 3.923-3.902zm0 5.574a1.68 1.68 0 0 0 1.681-1.672c0-.922-.755-1.672-1.681-1.672a1.68 1.68 0 0 0-1.682 1.672 1.68 1.68 0 0 0 1.682 1.672zm0-21.179c-2.163 0-3.923-1.75-3.923-3.901s1.76-3.902 3.923-3.902c2.162 0 3.922 1.75 3.922 3.902 0 2.151-1.76 3.901-3.922 3.901zm0-5.573a1.68 1.68 0 0 0-1.682 1.672 1.68 1.68 0 0 0 1.682 1.672 1.68 1.68 0 0 0 1.681-1.672c0-.922-.755-1.672-1.681-1.672z"/></svg>