<svg xmlns="http://www.w3.org/2000/svg" preserveAspectRatio="xMidYMid" width="52" height="52" viewBox="0 0 52 52"><path d="M50.917 52h-2.709-8.125-28.167-8.124-2.709a1.083 1.083 0 0 1 0-2.167h1.625v-3.25c0-4.367 1.217-8.625 3.518-12.313a23.378 23.378 0 0 1 8.248-7.928c-.432-1.135-.781-2.664-1.146-4.879a21.364 21.364 0 0 0-.191-.989c-.079-.381-.166-.798-.267-1.377h-.752a1.083 1.083 0 0 1-1.083-1.083c0-1.164.463-2.168 1.272-3.021a1.918 1.918 0 0 0-.008-.079c-.054-.544-.081-.812-.086-.919-.075-1.525.028-2.734.315-3.695.94-3.145 2.722-5.77 5.156-7.59C20.054.937 22.93 0 26 0c3.07 0 5.946.937 8.316 2.71 2.433 1.82 4.216 4.445 5.155 7.59.293.978.394 2.216.31 3.785-.004.09-.024.267-.088.827l-.008.073c.814.855 1.279 1.862 1.279 3.029 0 .598-.485 1.083-1.083 1.083h-.752c-.102.587-.191 1.012-.267 1.375-.071.342-.133.638-.191.99-.364 2.216-.713 3.745-1.146 4.88a23.38 23.38 0 0 1 8.249 7.928 23.234 23.234 0 0 1 3.517 12.313v3.25h1.625A1.084 1.084 0 0 1 50.917 52zM13 49.833h26V45.5H27.083v2.167a1.083 1.083 0 0 1-2.166 0V45.5H13v4.333zm23.995-6.5l-2.709-2.167h-7.203v2.167h9.912zm-12.078 0v-2.167h-7.203l-2.709 2.167h9.912zm12.478-32.412C35.783 5.521 31.416 2.167 26 2.167c-5.416 0-9.783 3.354-11.396 8.754-.189.632-.27 1.494-.242 2.563 2.885-1.541 7.273-2.263 11.638-2.263 2.476 0 4.96.233 7.173.715l-.015-.047c-.726-2.201-2.15-3.882-4.01-4.732a1.082 1.082 0 1 1 .901-1.971c2.415 1.104 4.25 3.244 5.167 6.025.03.091.218.682.288 1.365.774.262 1.491.565 2.134.909.028-1.067-.053-1.93-.243-2.564zm1.071 6.009c-.68-1.077-2.257-1.802-3.295-2.181-2.367-.865-5.709-1.361-9.171-1.361-3.462 0-6.805.496-9.172 1.361-1.038.379-2.615 1.104-3.295 2.181h24.933zm-23.394 2.167c.068.365.129.66.186.935.074.35.143.681.208 1.078.91 5.526 1.483 5.891 3.899 7.428.403.256.859.546 1.367.89 3.496 2.005 7.04 2.005 10.536-.001a54.39 54.39 0 0 1 1.367-.889c2.415-1.537 2.989-1.901 3.899-7.428.065-.398.134-.729.207-1.08.058-.275.119-.569.187-.933H15.072zm32.052 27.486a21.05 21.05 0 0 0-10.65-18.35c-.661.811-1.508 1.389-2.677 2.132-.399.254-.852.542-1.346.878a.924.924 0 0 1-.067.041c-2.094 1.209-4.242 1.822-6.385 1.822h-.003c-2.141 0-4.288-.613-6.381-1.821a.74.74 0 0 1-.066-.042l-.134-.089-1.032.529a17.007 17.007 0 0 0-2.741 1.758 1.083 1.083 0 0 1-1.339-1.703 19.125 19.125 0 0 1 3.021-1.945c-.734-.499-1.316-.967-1.798-1.56a21.05 21.05 0 0 0-10.651 18.35v3.25h5.958v-5.417l.001-.022.003-.064.004-.04c.002-.021.006-.041.01-.062.003-.023.008-.044.013-.066l.013-.051.016-.048.015-.042.019-.046.022-.044.02-.039a.853.853 0 0 1 .127-.181l.04-.045.026-.026.045-.041.028-.024.005-.005 5.417-4.333c.192-.154.43-.237.676-.237h17.333c.246 0 .485.083.676.237l5.375 4.299c.018.013.035.028.052.042l.004.004a1.077 1.077 0 0 1 .393.884v5.367h5.958v-3.25zM12.821 36.267a1.08 1.08 0 0 1-1.52.185 1.085 1.085 0 0 1-.186-1.521c.139-.177.287-.359.44-.54a1.083 1.083 0 1 1 1.654 1.399c-.135.161-.265.321-.388.477zM26.619 6.52a1.73 1.73 0 0 1-.072-.002A8.17 8.17 0 0 0 26 6.5a1.083 1.083 0 1 1 0-2.167c.233 0 .464.008.689.022a1.084 1.084 0 0 1-.07 2.165z"/></svg>