<svg xmlns="http://www.w3.org/2000/svg" preserveAspectRatio="xMidYMid" width="43" height="43" viewBox="0 0 43 43"><path d="M34.103 43c-4.905 0-8.896-3.991-8.896-8.897 0-4.905 3.991-8.896 8.896-8.896 4.906 0 8.897 3.991 8.897 8.896C43 39.009 39.009 43 34.103 43zm0-16.31c-4.088 0-7.413 3.325-7.413 7.413s3.325 7.414 7.413 7.414 7.414-3.326 7.414-7.414c0-4.088-3.326-7.413-7.414-7.413zm4.449 8.155h-4.449a.74.74 0 0 1-.741-.742v-4.448a.74.74 0 1 1 1.483 0v3.707h3.707a.74.74 0 1 1 0 1.483zm-18.535-4.449v6.673h-6.672-1.483-6.673v-6.673-1.482-5.19-1.483-6.672H33.362v8.155H26.69h-1.483-5.19V30.396zm-8.155-13.344h-5.19v5.189h5.19v-5.189zm0 6.672h-5.19v5.19h5.19v-5.19zm0 6.672h-5.19v5.19h5.19v-5.19zm6.672-13.344h-5.189v5.189h5.189v-5.189zm0 6.672h-5.189v5.19h5.189v-5.19zm0 6.672h-5.189v5.19h5.189v-5.19zm8.156-8.155h5.189v-5.189H26.69v5.189zm-1.483 0v-5.189h-5.19v5.189h5.19zm12.603 0a.74.74 0 0 1-.741-.741v-9.638H1.483v28.914h22.982a.74.74 0 1 1 0 1.482H.741A.74.74 0 0 1 0 41.517V11.121 3.707a.74.74 0 0 1 .741-.742h3.707V.741A.74.74 0 0 1 5.189 0h5.19a.74.74 0 0 1 .742.741v2.224h16.31V.741A.74.74 0 0 1 28.172 0h5.19a.74.74 0 0 1 .741.741v2.224h3.707c.41 0 .742.332.742.742V21.5a.74.74 0 0 1-.742.741zM9.638 3.707V1.483H5.931v4.448h3.707V3.707zm22.983 0V1.483h-3.707v4.448h3.707V3.707zm4.448.741h-2.966v2.224a.74.74 0 0 1-.741.742h-5.19a.74.74 0 0 1-.741-.742V4.448h-16.31v2.224c0 .41-.332.742-.742.742h-5.19a.742.742 0 0 1-.741-.742V4.448H1.483v5.931h35.586V4.448z"/></svg>