<svg xmlns="http://www.w3.org/2000/svg" preserveAspectRatio="xMidYMid" width="42" height="42" viewBox="0 0 42 42"><path d="M42 42h-1.355v-.678c0-3.506-2.678-6.398-6.097-6.739V42h-1.355v-7.452h-2.032V42h-1.355v-7.452h-1.355c-.276 0-.54-.042-.798-.104-.588 3.139-3.345 5.524-6.653 5.524-3.308 0-6.065-2.385-6.654-5.524a3.381 3.381 0 0 1-.798.104h-1.355V42h-1.355v-7.452H8.806V42H7.451v-7.417c-3.418.341-6.096 3.233-6.096 6.74V42H0v-.677c0-3.273 1.948-6.093 4.742-7.38v-1.704c-1.332-.808-2.033-2.108-2.033-3.788 0-1.646 1.112-3.564 3.237-4.048l.828-.188v3.559h1.355v-3.557l.826.186c2.126.48 3.238 2.4 3.238 4.048 0 1.68-.7 2.98-2.032 3.788v.954h3.387a2.034 2.034 0 0 0 2.032-2.032V28.34c-3.233-1.878-5.419-5.371-5.419-9.372v-.097a2.706 2.706 0 0 1-2.032-2.613c0-1.217.458-1.986.715-2.322a2.145 2.145 0 0 1-.038-.388v-1.355C8.806 5.47 14.276 0 21 0c6.723 0 12.193 5.47 12.193 12.193v1.355c0 .134-.015.262-.038.388.257.336.716 1.105.716 2.322a2.706 2.706 0 0 1-2.033 2.613v.097c0 4.001-2.185 7.494-5.419 9.372v2.821c0 1.12.912 2.032 2.032 2.032h2.033v-1.355c0-.087.008-2.166.712-4.278l2.228-5.205H37.027l2.208 5.152c.725 2.165.733 4.244.733 4.332v4.064h-.055A8.086 8.086 0 0 1 42 41.322V42zM10.838 28.452a2.86 2.86 0 0 0-1.354-2.397v3.074H5.419v-3.072a2.86 2.86 0 0 0-1.355 2.395c0 1.317.542 2.226 1.657 2.78l.375.187v2.042a8.071 8.071 0 0 1 2.033-.268h.677v-1.774l.376-.187c1.114-.554 1.656-1.463 1.656-2.78zm-.677-12.776a4.12 4.12 0 0 1-.515-.392 2.838 2.838 0 0 0-.162.974c0 .499.274.931.677 1.166v-1.748zm21.678 1.749c.403-.236.677-.668.677-1.167 0-.405-.073-.727-.162-.973a4.404 4.404 0 0 1-.515.392v1.748zM21 38.613a5.426 5.426 0 0 0 5.38-4.792 3.368 3.368 0 0 1-1.316-2.66v-2.153a10.76 10.76 0 0 1-4.064.799c-1.438 0-2.808-.288-4.065-.799v2.153a3.37 3.37 0 0 1-1.315 2.66A5.425 5.425 0 0 0 21 38.613zm.677-37.224v4.708h-1.355V1.389c-5.542.345-9.96 4.864-10.143 10.448 2.411-1.285 7.472-1.676 10.821-1.676 3.349 0 8.409.391 10.82 1.676-.183-5.584-4.601-10.102-10.143-10.448zm10.161 12.159c-.128-.687-4.069-2.032-10.838-2.032-6.765 0-10.706 1.343-10.838 2.034.003 1.332 4.057 2.708 10.838 2.708 6.784 0 10.839-1.378 10.838-2.71zm-1.354 5.42v-2.619c-2.987 1.138-7.616 1.264-9.484 1.264-1.869 0-6.497-.126-9.484-1.264v2.619c0 5.229 4.254 9.484 9.484 9.484 5.229 0 9.484-4.255 9.484-9.484zm4.064 4.742h-.231l-1.856 4.331c-.615 1.853-.622 3.779-.622 3.798v1.355h1.883a2.02 2.02 0 0 1-.529-1.355 2.03 2.03 0 0 1 1.355-1.908V23.71zm.678 7.451a.679.679 0 0 0 0 1.355.678.678 0 0 0 0-1.355zm3.387.678c0-.019-.01-1.954-.643-3.851l-1.836-4.279h-.231v6.222a2.029 2.029 0 0 1 1.355 1.907c0 .729-.389 1.365-.967 1.723a8.144 8.144 0 0 1 2.322 1.172v-2.894zm-18.291-6.775V18.29h7.452v1.355h-6.097v5.419h-1.355zM14.903 8.129h1.355v1.355h-1.355V8.129zm-2.71.677h1.355v1.355h-1.355V8.806z"/></svg>