<svg xmlns="http://www.w3.org/2000/svg" preserveAspectRatio="xMidYMid" width="17" height="16" viewBox="0 0 17 16"><path d="M16.336 2.996h-3.614a1.892 1.892 0 0 0 .103-1.906 2.037 2.037 0 0 0-1.831-1.094c-.314 0-.617.068-.9.202-.688.325-1.223.959-1.595 1.534C8.126 1.156 7.591.523 6.903.197a2.101 2.101 0 0 0-.9-.201c-.784 0-1.485.42-1.831 1.094a1.894 1.894 0 0 0 .103 1.906H.662a.65.65 0 0 0-.66.634v3.29a.65.65 0 0 0 .66.634h.18V14.779c0 .676.57 1.223 1.273 1.223h12.768c.703 0 1.273-.548 1.273-1.223V7.554h.18a.65.65 0 0 0 .66-.634V3.63a.65.65 0 0 0-.66-.634zm-5.659-1.66a.746.746 0 0 1 .965.315.681.681 0 0 1-.328.927c-.273.129-.627.195-1.054.195-.187 0-.366-.015-.538-.035a1.22 1.22 0 0 0-.13-.287c.284-.45.662-.915 1.085-1.115zm-5.321.315a.718.718 0 0 1 .647-.386.72.72 0 0 1 .317.071c.424.2.802.665 1.086 1.115a1.22 1.22 0 0 0-.13.287c-.172.02-.351.035-.538.035-.426 0-.781-.066-1.054-.195a.682.682 0 0 1-.328-.927zm2.511 12.765H2.492v-2.878h5.375v2.878zM2.492 10.27V7.554h5.375v2.716H2.492zm12.014 4.146H9.131v-2.878h5.375v2.878zm0-4.146H9.131V7.554h5.375v2.716z"/></svg>