<svg xmlns="http://www.w3.org/2000/svg" preserveAspectRatio="xMidYMid" width="19" height="18" viewBox="0 0 19 18"><path d="M18.162 9.134c.48.839.2 1.932-.62 2.451.48.839.199 1.931-.621 2.45.688 1.202-.226 2.74-1.621 2.74H4.962V6.973s2.992-2.676 3.955-3.604a3.738 3.738 0 0 0 1.052-1.986c.056-.294.04-.604.199-.869.137-.23.369-.402.632-.468.458-.114 1.027-.006 1.435.209 1.25.66 1.542 2.516 1.091 3.732l-.653 1.761s4.678-.017 4.777 0c1.654.276 2.127 2.491.712 3.386zM3.101 18H.62a.617.617 0 0 1-.62-.613V6.36c0-.338.279-.612.62-.612h2.481c.341 0 .621.274.621.612v11.027a.617.617 0 0 1-.621.613z"/></svg>