<svg xmlns="http://www.w3.org/2000/svg" preserveAspectRatio="xMidYMid" width="41" height="58" viewBox="0 0 41 58"><path d="M40.642 49.165l-8.498 8.478a1.223 1.223 0 0 1-.863.357H3.506A3.506 3.506 0 0 1 0 54.503V3.497A3.506 3.506 0 0 1 3.506 0h33.988A3.506 3.506 0 0 1 41 3.497v44.807c0 .323-.129.632-.358.861zm-8.141 4.678l4.332-4.322h-3.267c-.587 0-1.065.477-1.065 1.062v3.26zm6.058-50.346c0-.586-.477-1.062-1.065-1.062H3.506c-.588 0-1.065.476-1.065 1.062V7.26h36.118V3.497zm0 6.198H2.441v44.808c0 .585.477 1.062 1.065 1.062h26.555v-4.982a3.505 3.505 0 0 1 3.505-3.497h4.993V9.695zm-6.105 35.307H20.831a1.218 1.218 0 1 1 0-2.435h11.623a1.219 1.219 0 1 1 0 2.435zm0-6.957h-4.126a1.22 1.22 0 0 1-1.221-1.217 1.22 1.22 0 0 1 1.221-1.218h4.126a1.219 1.219 0 1 1 0 2.435zm0-9.668h-4.126a1.22 1.22 0 0 1-1.221-1.217 1.22 1.22 0 0 1 1.221-1.217h4.126c.674 0 1.22.545 1.22 1.217s-.546 1.217-1.22 1.217zm0-9.667h-4.126a1.22 1.22 0 0 1-1.221-1.217 1.22 1.22 0 0 1 1.221-1.218h4.126a1.219 1.219 0 1 1 0 2.435zm-9.008 19.335H7.465a1.218 1.218 0 1 1 0-2.435h15.981a1.22 1.22 0 0 1 1.221 1.218 1.22 1.22 0 0 1-1.221 1.217zm0-9.668H7.465c-.674 0-1.22-.545-1.22-1.217s.546-1.217 1.22-1.217h15.981a1.22 1.22 0 0 1 1.221 1.217 1.22 1.22 0 0 1-1.221 1.217zm0-9.667H7.465a1.218 1.218 0 1 1 0-2.435h15.981a1.22 1.22 0 0 1 1.221 1.218 1.22 1.22 0 0 1-1.221 1.217z"/></svg>