<svg xmlns="http://www.w3.org/2000/svg" preserveAspectRatio="xMidYMid" width="25" height="25" viewBox="0 0 25 25"><path d="M24.438 24.999H.562A.564.564 0 0 1 0 24.431V7.954a.57.57 0 0 1 .303-.505.558.558 0 0 1 .583.041l5.083 3.629V7.954a.57.57 0 0 1 .303-.505.558.558 0 0 1 .583.041l5.083 3.629V7.954a.56.56 0 1 1 .886-.464l5.495 3.923.84-10.89a.565.565 0 0 1 .56-.524h3.876c.295 0 .539.23.561.527l.842 11.648a.563.563 0 0 1 .002.041v12.216a.565.565 0 0 1-.562.568zM6.1 23.863h1.606v-7.102H6.1v7.102zm-2.729 0h1.605v-7.102H3.371v7.102zM23.073 1.136h-2.834l-.349 4.517h3.51l-.327-4.517zm.606 8.366h-.538a.565.565 0 0 1-.562-.568c0-.314.252-.568.562-.568h.455l-.114-1.577h-3.68l-.374 4.858h4.406l-.155-2.145zm.197 3.282H18.82h-.351a.556.556 0 0 1-.324-.104l-5.083-3.629v3.164a.569.569 0 0 1-.304.505.558.558 0 0 1-.582-.04L7.093 9.051v3.164a.569.569 0 0 1-.304.505.558.558 0 0 1-.582-.04L1.124 9.051v14.812h1.123v-7.67c0-.314.252-.569.562-.569h5.458c.311 0 .562.255.562.569v7.67h15.047V12.784zm-13.361 6.108h11.676c.31 0 .562.254.562.568v2.699a.566.566 0 0 1-.562.568H10.515a.565.565 0 0 1-.562-.568V19.46c0-.314.251-.568.562-.568zm8.346 2.698h2.768v-1.562h-2.768v1.562zm-3.893 0h2.769v-1.562h-2.769v1.562zm-3.892 0h2.769v-1.562h-2.769v1.562zm11.115-3.835H10.515a.564.564 0 0 1-.562-.568v-2.699c0-.314.251-.568.562-.568h11.676c.31 0 .562.254.562.568v2.699a.565.565 0 0 1-.562.568zm-8.346-2.699h-2.769v1.563h2.769v-1.563zm3.892 0h-2.769v1.563h2.769v-1.563zm3.892 0h-2.768v1.563h2.768v-1.563zm-.48-6.69h.056c.31 0 .562.254.562.568a.565.565 0 0 1-.562.568h-.056a.565.565 0 0 1-.562-.568c0-.314.252-.568.562-.568z" fill-rule="evenodd"/></svg>