<svg xmlns="http://www.w3.org/2000/svg" preserveAspectRatio="xMidYMid" width="27" height="25" viewBox="0 0 27 25"><path d="M25.582 14.82v2.852a5.215 5.215 0 0 1-4.132 5.108l.737.742a.871.871 0 0 1 0 1.224.853.853 0 0 1-1.215 0l-1.847-1.86H7.874l-1.847 1.86a.852.852 0 0 1-1.214 0 .871.871 0 0 1 0-1.224l.737-.742a5.214 5.214 0 0 1-4.132-5.108V14.82A2.236 2.236 0 0 1 0 12.739a2.23 2.23 0 0 1 2.003-2.223v-7.27c0-1.79 1.445-3.247 3.221-3.247h.394c.886 0 1.72.369 2.32.995a2.836 2.836 0 0 1 1.62-.503c.768 0 1.49.301 2.033.848l.381.383a.871.871 0 0 1 0 1.224L8.217 6.73a.858.858 0 0 1-1.215 0l-.38-.384a2.916 2.916 0 0 1 .067-4.164 1.5 1.5 0 0 0-1.071-.452h-.394c-.829 0-1.504.68-1.504 1.515v7.26h21.063A2.228 2.228 0 0 1 27 12.739c0 .947-.59 1.757-1.418 2.081zM7.642 4.862a4892813818871702 4892813818871702 0 0 0 1.098-2.3l-.903.911a1.174 1.174 0 0 0-.195 1.389zm-4.507 12.81c0 1.921 1.551 3.484 3.458 3.484h13.813c1.907 0 3.458-1.563 3.458-3.484v-2.675H3.135v2.675zm21.648-5.436H2.217a.5.5 0 0 0-.499.503c0 .277.223.503.499.503h22.566a.502.502 0 0 0 .499-.503.501.501 0 0 0-.499-.503zM13.605 6.668a.413.413 0 0 1-.294-.123l-.419-.423a.42.42 0 0 1 0-.593.414.414 0 0 1 .588 0l.42.423a.423.423 0 0 1 0 .593.415.415 0 0 1-.295.123zm-.463 2.073a.413.413 0 0 1-.589 0l-.419-.422a.422.422 0 0 1 0-.594.416.416 0 0 1 .589 0l.419.423a.42.42 0 0 1 0 .593zm-1.133-1.567a.415.415 0 0 1-.294-.123l-.42-.423a.423.423 0 0 1 0-.593.414.414 0 0 1 .589 0l.419.422a.422.422 0 0 1-.294.717zm-1.972-.123l-.419-.423a.42.42 0 0 1 0-.593.413.413 0 0 1 .588 0l.42.422a.42.42 0 1 1-.295.717.417.417 0 0 1-.294-.123zm1.008.674l.42.423a.423.423 0 0 1 0 .593.415.415 0 0 1-.589 0l-.419-.422a.422.422 0 0 1 0-.594.415.415 0 0 1 .588 0zm.939-2.267a.415.415 0 0 1-.295-.123l-.419-.423a.423.423 0 0 1 0-.593.414.414 0 0 1 .589 0l.419.423a.42.42 0 0 1-.294.716z"/></svg>