<svg xmlns="http://www.w3.org/2000/svg" viewBox="0 0 27 25"><path d="M25.6 14.8v2.9c0 2.5-1.8 4.6-4.1 5.1l.7.7c.3.3.3.9 0 1.2-.2.2-.4.3-.6.3-.2 0-.4-.1-.6-.3l-1.8-1.9H7.9L6 24.7c-.1.2-.4.3-.6.3-.2 0-.4-.1-.6-.3-.3-.3-.3-.9 0-1.2l.7-.7c-2.4-.5-4.1-2.6-4.1-5.1v-2.9C.6 14.5 0 13.7 0 12.7c0-1.2.9-2.1 2-2.2V3.2C2 1.5 3.4 0 5.2 0h.4c.9 0 1.7.4 2.3 1 .5-.3 1-.5 1.6-.5.8 0 1.5.3 2 .8l.5.4c.3.3.3.9 0 1.2L8.2 6.7c-.2.2-.4.3-.6.3-.2 0-.4-.1-.6-.3l-.4-.4c-1.1-1.1-1.1-3 0-4.1l.1-.1c-.3-.2-.7-.4-1.1-.4h-.4c-.8 0-1.5.7-1.5 1.5v7.3h21.1c1.2 0 2.2 1 2.2 2.2 0 1-.6 1.8-1.4 2.1zm-18-9.9l2.5-2.5c-.2-.1-.3-.2-.5-.2-.4 0-.6.1-.9.4l-.9.9c-.3.3-.4.9-.2 1.4zM3.1 17.7c0 1.9 1.6 3.5 3.5 3.5h13.8c1.9 0 3.5-1.6 3.5-3.5V15H3.1v2.7zm21.7-5.5H2.2c-.3 0-.5.2-.5.5s.2.5.5.5h22.6c.3 0 .5-.2.5-.5 0-.2-.2-.5-.5-.5zM13.6 6.7c-.1 0-.2 0-.3-.1l-.4-.4c-.2-.2-.2-.4 0-.6.2-.2.4-.2.6 0l.4.4c.2.2.2.4 0 .6-.1 0-.2.1-.3.1zm-.5 2c-.1.1-.2.1-.3.1-.1 0-.2 0-.3-.1l-.4-.4c-.2-.2-.2-.4 0-.6.2-.2.4-.2.6 0l.4.4c.2.2.2.5 0 .6zM12 7.2c-.1 0-.2 0-.3-.1l-.4-.4c-.2-.2-.2-.4 0-.6.2-.2.4-.2.6 0l.4.4c.2.2.2.4 0 .6-.1 0-.2.1-.3.1zm-2-.1l-.4-.5c-.1-.1-.1-.4 0-.6.2-.2.4-.2.6 0l.4.4c.2.2.2.4 0 .6-.1.1-.2.1-.3.1-.1.1-.2 0-.3 0zm1 .6l.4.4c.2.2.2.4 0 .6-.1.1-.2.1-.3.1-.1 0-.2 0-.3-.1l-.4-.4c-.2-.2-.2-.4 0-.6.2-.1.5-.1.6 0zm1-2.2c-.1 0-.2 0-.3-.1l-.4-.4c-.2-.2-.2-.4 0-.6.2-.2.4-.2.6 0l.4.4c.2.2.2.4 0 .6-.1 0-.2.1-.3.1z"/></svg>