<svg xmlns="http://www.w3.org/2000/svg" preserveAspectRatio="xMidYMid" width="62" height="56" viewBox="0 0 62 56"><path d="M61.042 39.936l-1.558.421a5.204 5.204 0 0 1 1.341 2.337c.737 2.775-.902 5.638-3.653 6.381-.439.119-.89.179-1.341.179-2.332 0-4.383-1.589-4.987-3.863a5.22 5.22 0 0 1 .003-2.699l-16.32 4.411a5.233 5.233 0 0 1 .82 6.293h1.235c.713 0 1.291.583 1.291 1.302 0 .719-.578 1.302-1.291 1.302h-5.713-8.959a1.297 1.297 0 0 1-1.291-1.302c0-.719.578-1.302 1.291-1.302h4.496a5.216 5.216 0 0 1-.516-3.958l-.672.181a1.268 1.268 0 0 1-.98-.13 1.302 1.302 0 0 1-.602-.791L19.96 34.841l-1.47-5.535-.008-.039-3.8-14.327-.196-.738-.002-.006-2.672-10.074-.331.09c-.126 1.604-1.233 3.031-2.86 3.47L4.879 8.694a3.846 3.846 0 0 1-.999.133A3.888 3.888 0 0 1 .127 5.909c-.539-2.074.689-4.208 2.745-4.764L6.615.133C6.942.045 7.278 0 7.614 0c1.303 0 2.488.659 3.197 1.697l1.58-.427a1.28 1.28 0 0 1 .981.13c.297.172.513.457.602.791l2.673 10.079L35.36 7.211a1.29 1.29 0 0 1 1.583.921l3.677 13.845 8.726-2.359c.331-.089.684-.043.981.13.297.173.513.457.602.791l4.816 18.133 4.628-1.251a1.29 1.29 0 0 1 1.582.921 1.302 1.302 0 0 1-.913 1.594zM8.866 3.571V3.57a1.298 1.298 0 0 0-1.582-.922L3.542 3.659a1.307 1.307 0 0 0-.914 1.598l.003.013a1.298 1.298 0 0 0 1.579.909l3.743-1.012a1.306 1.306 0 0 0 .913-1.596zm19.516 47.892a2.589 2.589 0 0 0 2.49 1.933h.007c.223 0 .447-.03.666-.089 1.377-.372 2.196-1.805 1.827-3.194a2.59 2.59 0 0 0-2.492-1.933c-.222 0-.445.03-.663.088l-.013.004c-1.373.374-2.19 1.804-1.822 3.191zm-1.086-39.376l-2.496.675 1.476 5.555.597-.534a1.285 1.285 0 0 1 1.116-.301l.783.161-1.476-5.556zm7.486-2.024l-4.991 1.35 2.017 7.592a1.31 1.31 0 0 1-.308 1.229c-.307.328-.76.473-1.199.383l-2.197-.454-1.677 1.501a1.289 1.289 0 0 1-2.105-.637l-2.017-7.591-4.99 1.349 3.343 12.588 17.467-4.722-3.343-12.588zm-.987 16.454l1.476 5.556.597-.534a1.283 1.283 0 0 1 1.117-.301l.782.161-1.476-5.556-2.496.674zm14.973-4.046l-2.496.674 1.798 6.77a1.302 1.302 0 0 1-1.248 1.638 1.292 1.292 0 0 1-1.247-.965l-1.798-6.768-4.99 1.349 2.016 7.591c.116.436 0 .901-.307 1.23-.307.328-.76.473-1.199.382l-2.197-.453-1.678 1.501a1.286 1.286 0 0 1-2.105-.637L31.3 27.192l-9.979 2.697 1.13 4.26 3.351 12.617 2.491-.674-1.798-6.769a1.302 1.302 0 0 1 .914-1.594 1.29 1.29 0 0 1 1.581.921l1.798 6.768 22.462-6.071-4.482-16.876zm9.562 20.896a2.591 2.591 0 0 0-2.493-1.933c-.223 0-.446.03-.665.089l-.01.003c-1.374.373-2.191 1.804-1.823 3.192a2.59 2.59 0 0 0 2.493 1.933c.224 0 .45-.031.67-.09 1.377-.372 2.196-1.805 1.828-3.194zM47.438 32.57a1.29 1.29 0 0 1 1.582.921l.13.491a1.303 1.303 0 0 1-1.248 1.638 1.293 1.293 0 0 1-1.247-.966l-.131-.491a1.302 1.302 0 0 1 .914-1.593zm-20.311 4.097a1.294 1.294 0 0 1-1.582-.92l-.131-.491a1.303 1.303 0 0 1 .914-1.594 1.29 1.29 0 0 1 1.582.92l.13.491a1.302 1.302 0 0 1-.913 1.594zm13.216 16.729h.567c.713 0 1.292.583 1.292 1.302 0 .719-.579 1.302-1.292 1.302h-.567a1.297 1.297 0 0 1-1.292-1.302c0-.719.578-1.302 1.292-1.302z"/></svg>