<svg xmlns="http://www.w3.org/2000/svg" preserveAspectRatio="xMidYMid" width="28" height="28" viewBox="0 0 28 28"><path d="M26.018 10.849a6.685 6.685 0 0 1-4.781 1.998h-.005c-.547-.001-1.347-.178-1.813-.294l-1.669 1.684a.633.633 0 0 1-.896 0 .644.644 0 0 1 0-.904l1.926-1.942a.632.632 0 0 1 .618-.164c.339.095 1.33.342 1.835.342h.004a5.431 5.431 0 0 0 3.885-1.623 5.574 5.574 0 0 0-.247-8.071v4.181c0 .21-.102.406-.273.525l-3.007 2.098a.627.627 0 0 1-.721 0L17.868 6.58a.64.64 0 0 1-.272-.524l-.002-4.182a5.577 5.577 0 0 0-1.859 4.153c0 .787.177 1.569.527 2.326a.644.644 0 0 1-.127.721l-.523.528a.63.63 0 0 1-.896 0 .644.644 0 0 1 0-.904l.22-.222a6.726 6.726 0 0 1-.467-2.449A6.85 6.85 0 0 1 17.915.082a.63.63 0 0 1 .631.005.64.64 0 0 1 .314.551l.003 5.082 2.372 1.657 2.373-1.656L23.607.64a.64.64 0 0 1 .314-.552.63.63 0 0 1 .631-.005A6.85 6.85 0 0 1 28 6.025a6.806 6.806 0 0 1-1.982 4.824zm-9.852.529a.641.641 0 0 1 0 .903l-1.06 1.069 6.562 6.618 1.817.664a.653.653 0 0 1 .232.148l3.682 3.713a.644.644 0 0 1 0 .904l-2.396 2.415a.628.628 0 0 1-.896 0L20.425 24.1a.639.639 0 0 1-.148-.234l-.659-1.832-6.562-6.617-1.06 1.069a.629.629 0 0 1-.896 0 .643.643 0 0 1-.136-.7L1.038 5.778a3.211 3.211 0 0 1-.935-2.272c0-.859.331-1.667.934-2.275A3.154 3.154 0 0 1 3.291.29h.004a3.15 3.15 0 0 1 2.251.943l9.926 10.008a.63.63 0 0 1 .694.137zm4.448 9.853a.636.636 0 0 1 .147.234l.659 1.832 3.135 3.16 1.5-1.512-3.135-3.161-1.817-.664a.642.642 0 0 1-.232-.149l-6.661-6.717-.258.26 6.662 6.717zM4.649 2.136a1.898 1.898 0 0 0-1.356-.568h-.002c-.513 0-.995.201-1.358.566a1.934 1.934 0 0 0-.563 1.371c0 .517.201 1.004.564 1.37l9.893 9.975 1.93-1.947.005-.004.004-.004.777-.784-9.894-9.975zm7.378 10.816a.633.633 0 0 1-.448-.187L2.84 3.953a.644.644 0 0 1 0-.904.63.63 0 0 1 .896 0l8.739 8.812a.644.644 0 0 1 0 .904.633.633 0 0 1-.448.187zM2.454 25.361l-.002-.002a.793.793 0 0 1 .003-1.112.771.771 0 0 1 .55-.228c.209 0 .405.082.552.23a.792.792 0 0 1 0 1.111.774.774 0 0 1-1.103.001zm5.988-10.336a.629.629 0 0 1 .896 0 .641.641 0 0 1 0 .903L1.779 23.55c-.33.332-.512.774-.513 1.244a1.757 1.757 0 0 0 1.748 1.765c.467 0 .906-.184 1.237-.517l8.788-8.861a.629.629 0 0 1 .896 0 .643.643 0 0 1 0 .903l-8.788 8.861a2.99 2.99 0 0 1-2.132.892h-.001a2.986 2.986 0 0 1-2.133-.891 3.041 3.041 0 0 1-.882-2.153 3.031 3.031 0 0 1 .885-2.147l7.558-7.621z" fill-rule="evenodd"/></svg>