<svg xmlns="http://www.w3.org/2000/svg" preserveAspectRatio="xMidYMid" width="17" height="18" viewBox="0 0 17 18"><path d="M16.278 18H.722A.722.722 0 0 1 0 17.283V12.52a.721.721 0 0 1 1.443 0v4.046h14.114V12.52a.721.721 0 1 1 1.443 0v4.763a.72.72 0 0 1-.722.717zM12.79 5.699a.724.724 0 0 1-.509-.211L9.222 2.449v11.174a.721.721 0 0 1-1.444 0V2.449L4.723 5.488a.73.73 0 0 1-1.022 0 .718.718 0 0 1 0-1.016L7.991.211A.711.711 0 0 1 8.5 0c.188 0 .373.076.509.211l4.29 4.261a.718.718 0 0 1-.509 1.227z"/></svg>